<svg xmlns="http://www.w3.org/2000/svg" xmlns:xlink="http://www.w3.org/1999/xlink" viewBox="0 0 610 361.12"><defs><style>.cls-1{fill:none;}.cls-2{clip-path:url(#clip-path);}.cls-3{fill:#000b28;}.cls-4{fill:#001534;}.cls-5{fill:#2e5689;}.cls-6{fill:#ffb219;}.cls-7{fill:#fff;}.cls-8{fill:#e6eaed;}.cls-9{fill:#faa525;}.cls-10{clip-path:url(#clip-path-2);}.cls-11{fill:#ffa719;}.cls-12{fill:#ced2de;}</style><clipPath id="clip-path"><rect class="cls-1" width="610" height="361.12" rx="4.74"/></clipPath><clipPath id="clip-path-2"><rect class="cls-1" x="352.87" y="135.76" width="209.9" height="122.63" transform="translate(654.89 -260.74) rotate(90)"/></clipPath></defs><g id="OBJECTS"><g class="cls-2"><path class="cls-3" d="M113.2,219.89H292.1a11.49,11.49,0,0,1,11.64,13.35,15.61,15.61,0,0,1-15,13.34H123.15a15.63,15.63,0,0,0-15.05,13.35Z"/><polygon class="cls-4" points="311.16 -5.03 -137.02 -5.03 -136.46 373.19 262.99 373.19 311.16 -5.03"/><path class="cls-5" d="M309.2,85.65h0A11.49,11.49,0,0,1,320.84,99l-17.1,134.24a11.49,11.49,0,0,0-11.64-13.34H-119.12l-8.3-134.24Z"/></g><rect class="cls-3" x="441.99" y="305.56" width="31.66" height="15.51"/><rect class="cls-3" x="410.68" y="319.78" width="94.27" height="5.43"/><rect class="cls-3" x="374.57" y="196.43" width="166.49" height="109.59" rx="3.25"/><rect class="cls-6" x="407.01" y="171.97" width="101.61" height="158.51" transform="translate(709.04 -206.59) rotate(90)"/><rect class="cls-5" x="352.87" y="135.76" width="209.9" height="122.63" transform="translate(654.89 -260.74) rotate(90)"/><path class="cls-6" d="M380.36,104a11.57,11.57,0,0,0,8.18,3.38,11.54,11.54,0,0,0,11.53-11.54V86H377v9.82A11.51,11.51,0,0,0,380.36,104Z"/><path class="cls-7" d="M403.46,104a11.55,11.55,0,0,0,19.71-8.16V86h-23.1v9.82A11.52,11.52,0,0,0,403.46,104Z"/><path class="cls-6" d="M426.55,104a11.58,11.58,0,0,0,8.19,3.38,11.56,11.56,0,0,0,11.53-11.54V86h-23.1v9.82A11.51,11.51,0,0,0,426.55,104Z"/><path class="cls-7" d="M449.65,104a11.55,11.55,0,0,0,19.71-8.16V86H446.27v9.82A11.51,11.51,0,0,0,449.65,104Z"/><path class="cls-6" d="M472.75,104a11.55,11.55,0,0,0,19.71-8.16V86h-23.1v9.82A11.52,11.52,0,0,0,472.75,104Z"/><path class="cls-7" d="M495.84,104a11.57,11.57,0,0,0,8.18,3.38,11.54,11.54,0,0,0,11.53-11.54V86H492.46v9.82A11.51,11.51,0,0,0,495.84,104Z"/><path class="cls-8" d="M436.64,60H422.53c-3.34,4.72-19.19,21.32-22.46,25.93h23.1C425.13,81.36,434.64,64.76,436.64,60Z"/><path class="cls-9" d="M450.76,60H436.64c-2,4.72-11.51,21.32-13.47,25.93h23.1C446.92,81.36,450.09,64.76,450.76,60Z"/><path class="cls-8" d="M464.87,60H450.76c-.67,4.72-3.84,21.32-4.49,25.93h23.09C468.71,81.36,465.54,64.76,464.87,60Z"/><path class="cls-9" d="M479,60H464.87c.67,4.72,3.84,21.32,4.49,25.93h23.1C490.5,81.36,481,64.76,479,60Z"/><path class="cls-8" d="M493.1,60H479c2,4.72,11.51,21.32,13.47,25.93h23.1C512.29,81.36,496.44,64.76,493.1,60Z"/><path class="cls-9" d="M422.53,60H408.66L377,86h23.09C403.34,81.36,419.19,64.76,422.53,60Z"/><path class="cls-6" d="M535.27,104a11.58,11.58,0,0,1-8.19,3.38,11.56,11.56,0,0,1-11.53-11.54V86h23.1v9.82A11.51,11.51,0,0,1,535.27,104Z"/><path class="cls-9" d="M493.1,60H507L538.65,86h-23.1C512.29,81.36,496.44,64.76,493.1,60Z"/><g class="cls-10"><polygon class="cls-11" points="415.69 309.94 416.69 311.95 418.9 312.27 417.3 313.84 417.68 316.05 415.69 315.01 413.71 316.05 414.09 313.84 412.48 312.27 414.7 311.95 415.69 309.94"/><polygon class="cls-11" points="423.79 309.94 424.78 311.95 427 312.27 425.39 313.84 425.77 316.05 423.79 315.01 421.8 316.05 422.18 313.84 420.57 312.27 422.79 311.95 423.79 309.94"/><polygon class="cls-11" points="431.88 309.94 432.87 311.95 435.09 312.27 433.48 313.84 433.86 316.05 431.88 315.01 429.89 316.05 430.27 313.84 428.67 312.27 430.88 311.95 431.88 309.94"/><polygon class="cls-11" points="439.97 309.94 440.96 311.95 443.18 312.27 441.57 313.84 441.95 316.05 439.97 315.01 437.98 316.05 438.36 313.84 436.76 312.27 438.98 311.95 439.97 309.94"/><polygon class="cls-11" points="448.06 309.94 449.05 311.95 451.27 312.27 449.67 313.84 450.05 316.05 448.06 315.01 446.07 316.05 446.45 313.84 444.85 312.27 447.07 311.95 448.06 309.94"/><rect class="cls-7" x="411.19" y="258.96" width="41.38" height="45.13" rx="2.08"/><polygon class="cls-11" points="469.3 309.94 470.29 311.95 472.51 312.27 470.91 313.84 471.29 316.05 469.3 315.01 467.32 316.05 467.7 313.84 466.09 312.27 468.31 311.95 469.3 309.94"/><polygon class="cls-11" points="477.39 309.94 478.39 311.95 480.61 312.27 479 313.84 479.38 316.05 477.39 315.01 475.41 316.05 475.79 313.84 474.18 312.27 476.4 311.95 477.39 309.94"/><polygon class="cls-11" points="485.49 309.94 486.48 311.95 488.7 312.27 487.09 313.84 487.47 316.05 485.49 315.01 483.5 316.05 483.88 313.84 482.27 312.27 484.49 311.95 485.49 309.94"/><polygon class="cls-11" points="493.58 309.94 494.57 311.95 496.79 312.27 495.18 313.84 495.56 316.05 493.58 315.01 491.59 316.05 491.97 313.84 490.37 312.27 492.58 311.95 493.58 309.94"/><polygon class="cls-11" points="501.67 309.94 502.66 311.95 504.88 312.27 503.27 313.84 503.65 316.05 501.67 315.01 499.68 316.05 500.06 313.84 498.46 312.27 500.68 311.95 501.67 309.94"/><rect class="cls-7" x="464.8" y="258.96" width="41.38" height="45.13" rx="2.08"/><polygon class="cls-11" points="415.69 238.49 416.69 240.5 418.9 240.82 417.3 242.39 417.68 244.6 415.69 243.56 413.71 244.6 414.09 242.39 412.48 240.82 414.7 240.5 415.69 238.49"/><polygon class="cls-11" points="423.79 238.49 424.78 240.5 427 240.82 425.39 242.39 425.77 244.6 423.79 243.56 421.8 244.6 422.18 242.39 420.57 240.82 422.79 240.5 423.79 238.49"/><polygon class="cls-11" points="431.88 238.49 432.87 240.5 435.09 240.82 433.48 242.39 433.86 244.6 431.88 243.56 429.89 244.6 430.27 242.39 428.67 240.82 430.88 240.5 431.88 238.49"/><polygon class="cls-11" points="439.97 238.49 440.96 240.5 443.18 240.82 441.57 242.39 441.95 244.6 439.97 243.56 437.98 244.6 438.36 242.39 436.76 240.82 438.98 240.5 439.97 238.49"/><polygon class="cls-11" points="448.06 238.49 449.05 240.5 451.27 240.82 449.67 242.39 450.05 244.6 448.06 243.56 446.07 244.6 446.45 242.39 444.85 240.82 447.07 240.5 448.06 238.49"/><rect class="cls-7" x="411.19" y="187.51" width="41.38" height="45.13" rx="2.08"/><polygon class="cls-11" points="469.3 238.49 470.29 240.5 472.51 240.82 470.91 242.39 471.29 244.6 469.3 243.56 467.32 244.6 467.7 242.39 466.09 240.82 468.31 240.5 469.3 238.49"/><polygon class="cls-11" points="477.39 238.49 478.39 240.5 480.61 240.82 479 242.39 479.38 244.6 477.39 243.56 475.41 244.6 475.79 242.39 474.18 240.82 476.4 240.5 477.39 238.49"/><polygon class="cls-11" points="485.49 238.49 486.48 240.5 488.7 240.82 487.09 242.39 487.47 244.6 485.49 243.56 483.5 244.6 483.88 242.39 482.27 240.82 484.49 240.5 485.49 238.49"/><polygon class="cls-11" points="493.58 238.49 494.57 240.5 496.79 240.82 495.18 242.39 495.56 244.6 493.58 243.56 491.59 244.6 491.97 242.39 490.37 240.82 492.58 240.5 493.58 238.49"/><polygon class="cls-11" points="501.67 238.49 502.66 240.5 504.88 240.82 503.27 242.39 503.65 244.6 501.67 243.56 499.68 244.6 500.06 242.39 498.46 240.82 500.68 240.5 501.67 238.49"/><rect class="cls-7" x="464.8" y="187.51" width="41.38" height="45.13" rx="2.08"/><polygon class="cls-11" points="415.69 167.04 416.69 169.05 418.9 169.37 417.3 170.94 417.68 173.15 415.69 172.1 413.71 173.15 414.09 170.94 412.48 169.37 414.7 169.05 415.69 167.04"/><polygon class="cls-11" points="423.79 167.04 424.78 169.05 427 169.37 425.39 170.94 425.77 173.15 423.79 172.1 421.8 173.15 422.18 170.94 420.57 169.37 422.79 169.05 423.79 167.04"/><polygon class="cls-11" points="431.88 167.04 432.87 169.05 435.09 169.37 433.48 170.94 433.86 173.15 431.88 172.1 429.89 173.15 430.27 170.94 428.67 169.37 430.88 169.05 431.88 167.04"/><polygon class="cls-11" points="439.97 167.04 440.96 169.05 443.18 169.37 441.57 170.94 441.95 173.15 439.97 172.1 437.98 173.15 438.36 170.94 436.76 169.37 438.98 169.05 439.97 167.04"/><polygon class="cls-11" points="448.06 167.04 449.05 169.05 451.27 169.37 449.67 170.94 450.05 173.15 448.06 172.1 446.07 173.15 446.45 170.94 444.85 169.37 447.07 169.05 448.06 167.04"/><rect class="cls-7" x="411.19" y="116.06" width="41.38" height="45.13" rx="2.08"/><polygon class="cls-11" points="469.3 167.04 470.29 169.05 472.51 169.37 470.91 170.94 471.29 173.15 469.3 172.1 467.32 173.15 467.7 170.94 466.09 169.37 468.31 169.05 469.3 167.04"/><polygon class="cls-11" points="477.39 167.04 478.39 169.05 480.61 169.37 479 170.94 479.38 173.15 477.39 172.1 475.41 173.15 475.79 170.94 474.18 169.37 476.4 169.05 477.39 167.04"/><polygon class="cls-11" points="485.49 167.04 486.48 169.05 488.7 169.37 487.09 170.94 487.47 173.15 485.49 172.1 483.5 173.15 483.88 170.94 482.27 169.37 484.49 169.05 485.49 167.04"/><polygon class="cls-11" points="493.58 167.04 494.57 169.05 496.79 169.37 495.18 170.94 495.56 173.15 493.58 172.1 491.59 173.15 491.97 170.94 490.37 169.37 492.58 169.05 493.58 167.04"/><polygon class="cls-11" points="501.67 167.04 502.66 169.05 504.88 169.37 503.27 170.94 503.65 173.15 501.67 172.1 499.68 173.15 500.06 170.94 498.46 169.37 500.68 169.05 501.67 167.04"/><rect class="cls-7" x="464.8" y="116.06" width="41.38" height="45.13" rx="2.08"/><polygon class="cls-6" points="474.19 195.32 463.57 204.96 468.88 211.5 474.19 209.31 474.19 195.32"/><polygon class="cls-6" points="496.78 195.32 507.4 204.96 502.09 211.5 496.78 209.31 496.78 195.32"/><path class="cls-4" d="M489.3,194.32a4.55,4.55,0,0,1-7.63,0l-7.48,1v37.32h22.59V195.32Z"/><path class="cls-6" d="M490.74,194.52l-1.44-.2a4.55,4.55,0,0,1-7.63,0l-1.44.2a5.9,5.9,0,0,0,10.51,0Z"/><rect class="cls-4" x="434.82" y="231.6" width="19.03" height="1.04"/><polygon class="cls-4" points="434.27 224.69 434.82 231.6 445.82 231.6 438.57 223.09 434.27 224.69"/><path class="cls-6" d="M453.25,228.5a17.58,17.58,0,0,0-1.51-1,17.33,17.33,0,0,1-8.13-10.84v0l1.61-22.05c0-.34-2.7-.61-6-.61s-6,.27-6,.61l1.65,21.88a14.09,14.09,0,0,0-1.68,3.77c-.3,1.71.6,3.21,1.15,4.41l3.17.86s2.49.24,4.23,3.6c1.09,2.09,1.86,2.45,2.86,2.45h9.32A2.48,2.48,0,0,0,453.25,228.5Z"/><rect class="cls-4" x="409.91" y="231.6" width="19.03" height="1.04"/><polygon class="cls-4" points="429.48 224.69 428.93 231.6 417.93 231.6 425.19 223.09 429.48 224.69"/><path class="cls-6" d="M410.51,228.5a15.72,15.72,0,0,1,1.5-1,17.26,17.26,0,0,0,8.13-10.84v0l-1.62-22.05c0-.34,2.7-.61,6-.61s6,.27,6,.61L429,216.51a14.41,14.41,0,0,1,1.68,3.77c.3,1.71-.61,3.21-1.16,4.41l-3.17.86s-2.48.24-4.23,3.6c-1.09,2.09-1.86,2.45-2.86,2.45h-9.31A2.47,2.47,0,0,1,410.51,228.5Z"/><path class="cls-4" d="M482.59,118.79h6.62a0,0,0,0,1,0,0v4.38a.81.81,0,0,1-.81.81h-5a.81.81,0,0,1-.81-.81v-4.38A0,0,0,0,1,482.59,118.79Z" transform="translate(971.79 242.77) rotate(180)"/><path class="cls-6" d="M485.39,123.41h1a8.87,8.87,0,0,1,8,5h0A15,15,0,0,1,495.9,135v23.89a2.34,2.34,0,0,1-2.34,2.34H478.23a2.34,2.34,0,0,1-2.34-2.34V135a15,15,0,0,1,1.49-6.52h0A8.87,8.87,0,0,1,485.39,123.41Z"/><rect class="cls-4" x="481.85" y="122.68" width="8.1" height="1.47" transform="translate(971.79 246.82) rotate(180)"/><rect class="cls-4" x="484.68" y="116.69" width="2.43" height="2.09" transform="translate(971.79 235.48) rotate(180)"/><path class="cls-4" d="M488.25,114.28a19.56,19.56,0,0,1,10.44,3l-.76,1.32a19.59,19.59,0,0,0-8.47-1.93h-7.61v-2.41Z"/><rect class="cls-4" x="475.89" y="138.86" width="20.01" height="15.04" transform="translate(971.79 292.76) rotate(180)"/><polygon class="cls-6" points="481.11 144.84 484.36 144.84 484.36 141.59 487.43 141.59 487.43 144.84 490.69 144.84 490.69 147.91 487.43 147.91 487.43 151.17 484.36 151.17 484.36 147.91 481.11 147.91 481.11 144.84"/><path class="cls-6" d="M446.39,270.47,446,269a5.73,5.73,0,0,0-5.56-4.34h-2.32a3.28,3.28,0,0,1-3.28-3.28v-1.8H428.6v3.32a3.27,3.27,0,0,1-1.83,2.94l-.75.37a9.77,9.77,0,0,0-5.15,6.33,97.75,97.75,0,0,0-3.06,24.25v4.07a3.28,3.28,0,0,0,3.28,3.28H445a3.28,3.28,0,0,0,3.28-3.28V286.13A65.18,65.18,0,0,0,446.39,270.47Zm-1.54,15.63a.65.65,0,0,1-.61-.41L437,268.29a.66.66,0,0,1,.68-.91h2.76a2.93,2.93,0,0,1,2.85,2.23l.38,1.53a61.83,61.83,0,0,1,1.84,14.28A.68.68,0,0,1,444.85,286.1Z"/><polygon class="cls-4" points="425.33 284.78 429.66 284.78 429.66 280.45 433.74 280.45 433.74 284.78 438.07 284.78 438.07 288.86 433.74 288.86 433.74 293.19 429.66 293.19 429.66 288.86 425.33 288.86 425.33 284.78"/><path class="cls-4" d="M428,257.16h7.31a0,0,0,0,1,0,0v3.47a.89.89,0,0,1-.89.89h-5.53a.89.89,0,0,1-.89-.89v-3.47A0,0,0,0,1,428,257.16Z" transform="translate(863.4 518.67) rotate(180)"/><rect class="cls-4" x="427.77" y="260.81" width="7.86" height="1.43" transform="translate(863.4 523.04) rotate(180)"/><polygon class="cls-4" points="494.86 259.78 476.11 259.78 472.24 266.52 472.24 304.03 498.73 304.03 498.73 266.52 494.86 259.78"/><rect class="cls-6" x="476.11" y="257.16" width="18.74" height="2.63"/><rect class="cls-6" x="472.24" y="266.52" width="26.48" height="37.51"/><rect class="cls-4" x="472.24" y="287.38" width="26.48" height="18.11"/><path class="cls-4" d="M431.15,161.19H414.67V129.3a8.24,8.24,0,0,1,8.24-8.24h0a8.24,8.24,0,0,1,8.24,8.24Z"/><path class="cls-4" d="M419.37,117.49v4.74h7.08v-4.74h0c0-.43-1.58-.77-3.54-.77s-3.54.34-3.54.77Z"/><path class="cls-6" d="M419.37,114.93v5.18h7.08v-5.18a.65.65,0,0,0-.65-.65H420A.65.65,0,0,0,419.37,114.93Z"/><rect class="cls-4" x="419.37" y="117.04" width="7.08" height="0.88"/><path class="cls-4" d="M424.25,117.48a1.34,1.34,0,1,1-2.68,0Z"/><rect class="cls-6" x="414.67" y="134.49" width="16.48" height="19.07"/><path class="cls-6" d="M444.72,158v-4.74h-7.08V158h0c0,.43,1.58.77,3.54.77s3.54-.34,3.54-.77Z"/><path class="cls-4" d="M444.72,160.54V156h-7.08v4.54a.65.65,0,0,0,.65.65h5.78A.65.65,0,0,0,444.72,160.54Z"/><rect class="cls-6" x="437.64" y="158" width="7.08" height="0.88" transform="translate(882.36 316.88) rotate(180)"/><path class="cls-6" d="M439.84,158.44a1.34,1.34,0,1,1,2.68,0Z"/><path class="cls-6" d="M441.18,123.29h-7.9l.88,19.53A30.38,30.38,0,0,0,436.7,152l.94,2.07,3.54.48,3.54-.48.94-2.07a30.38,30.38,0,0,0,2.54-9.13l.88-19.53Z"/><rect class="cls-4" x="433.28" y="121.1" width="15.8" height="2.19"/><path class="cls-6" d="M476.39,261.39h7.31a0,0,0,0,1,0,0v1.4a.6.6,0,0,1-.6.6H477a.6.6,0,0,1-.6-.6v-1.4A0,0,0,0,1,476.39,261.39Z" transform="translate(960.09 524.78) rotate(180)"/><rect class="cls-6" x="476.11" y="263.31" width="7.86" height="0.96" transform="translate(960.09 527.58) rotate(180)"/></g><rect class="cls-3" x="378.56" y="292.42" width="158.51" height="11.84"/><rect class="cls-4" x="522.88" y="274.33" width="54.55" height="50.88"/><rect class="cls-7" x="525.59" y="315.6" width="5.34" height="5.34"/><rect class="cls-7" x="533.78" y="315.6" width="5.34" height="5.34"/><rect class="cls-12" x="328.73" y="265.91" width="63.57" height="59.29"/><polygon class="cls-4" points="372.84 265.91 348.19 265.91 348.19 286.07 350.6 288.79 353.08 285.98 355.56 288.79 358.04 285.98 360.51 288.79 363 285.98 365.48 288.79 367.95 285.98 370.43 288.79 372.84 286.07 372.84 265.91"/><rect class="cls-7" x="331.9" y="314.02" width="6.22" height="6.22"/><rect class="cls-7" x="341.43" y="314.02" width="6.22" height="6.22"/><rect class="cls-12" x="529.4" y="241.87" width="34.8" height="32.45"/><polygon class="cls-4" points="553.54 241.87 540.05 241.87 540.05 252.91 541.37 254.39 542.72 252.86 544.08 254.39 545.44 252.86 546.79 254.39 548.15 252.86 549.51 254.39 550.87 252.86 552.22 254.39 553.54 252.91 553.54 241.87"/><rect class="cls-7" x="553.57" y="268.2" width="3.4" height="3.4"/><rect class="cls-7" x="558.79" y="268.2" width="3.4" height="3.4"/></g></svg>