<svg xmlns="http://www.w3.org/2000/svg" xmlns:xlink="http://www.w3.org/1999/xlink" viewBox="0 0 750 500"><defs><style>.cls-1{fill:none;}.cls-2{fill:#ebebeb;}.cls-3{fill:#000b28;}.cls-4{fill:#001534;}.cls-5{fill:#2e5689;}.cls-6{fill:#ffb219;}.cls-7{fill:#fff;}.cls-8{fill:#e6eaed;}.cls-9{fill:#faa525;}.cls-10{clip-path:url(#clip-path);}.cls-11{fill:#ffa719;}.cls-12{fill:#ced2de;}</style><clipPath id="clip-path"><rect class="cls-1" x="489.89" y="205.2" width="209.9" height="122.63" transform="translate(861.35 -328.32) rotate(90)"/></clipPath></defs><g id="BACKGROUND"><rect class="cls-2" width="750" height="500"/></g><g id="OBJECTS"><path class="cls-3" d="M250.22,289.33h178.9a11.49,11.49,0,0,1,11.64,13.35,15.61,15.61,0,0,1-15,13.34H260.17a15.63,15.63,0,0,0-15.05,13.35Z"/><polygon class="cls-4" points="448.18 64.41 0 64.41 0.56 442.63 400.01 442.63 448.18 64.41"/><path class="cls-5" d="M446.22,155.09h0a11.49,11.49,0,0,1,11.62,13.34l-17.1,134.24a11.49,11.49,0,0,0-11.64-13.34H17.9L9.6,155.09Z"/><rect class="cls-3" x="579.01" y="375" width="31.66" height="15.51"/><rect class="cls-3" x="547.7" y="389.22" width="94.27" height="5.43"/><rect class="cls-3" x="511.59" y="265.87" width="166.49" height="109.59" rx="3.25"/><rect class="cls-6" x="544.03" y="241.41" width="101.61" height="158.51" transform="translate(915.5 -274.17) rotate(90)"/><rect class="cls-5" x="533.52" y="161.57" width="122.63" height="209.9"/><path class="cls-6" d="M517.38,173.39a11.58,11.58,0,0,0,8.19,3.38,11.56,11.56,0,0,0,11.53-11.55v-9.81H514v9.81A11.52,11.52,0,0,0,517.38,173.39Z"/><path class="cls-7" d="M540.48,173.39a11.55,11.55,0,0,0,19.71-8.17v-9.81H537.1v9.81A11.52,11.52,0,0,0,540.48,173.39Z"/><path class="cls-6" d="M563.57,173.39a11.55,11.55,0,0,0,19.72-8.17v-9.81h-23.1v9.81A11.52,11.52,0,0,0,563.57,173.39Z"/><path class="cls-7" d="M586.67,173.39a11.57,11.57,0,0,0,8.18,3.38,11.54,11.54,0,0,0,11.53-11.55v-9.81H583.29v9.81A11.52,11.52,0,0,0,586.67,173.39Z"/><path class="cls-6" d="M609.77,173.39a11.55,11.55,0,0,0,19.71-8.17v-9.81h-23.1v9.81A11.53,11.53,0,0,0,609.77,173.39Z"/><path class="cls-7" d="M632.86,173.39a11.58,11.58,0,0,0,8.19,3.38,11.56,11.56,0,0,0,11.53-11.55v-9.81h-23.1v9.81A11.52,11.52,0,0,0,632.86,173.39Z"/><path class="cls-8" d="M573.67,129.48H559.55c-3.34,4.72-19.19,21.32-22.45,25.93h23.09C562.15,150.8,571.66,134.2,573.67,129.48Z"/><path class="cls-9" d="M587.78,129.48H573.67c-2,4.72-11.52,21.32-13.48,25.93h23.1C583.94,150.8,587.11,134.2,587.78,129.48Z"/><path class="cls-8" d="M601.89,129.48H587.78c-.67,4.72-3.84,21.32-4.49,25.93h23.09C605.73,150.8,602.56,134.2,601.89,129.48Z"/><path class="cls-9" d="M616,129.48H601.89c.67,4.72,3.84,21.32,4.49,25.93h23.1C627.52,150.8,618,134.2,616,129.48Z"/><path class="cls-8" d="M630.12,129.48H616c2,4.72,11.51,21.32,13.47,25.93h23.1C649.32,150.8,633.46,134.2,630.12,129.48Z"/><path class="cls-9" d="M559.55,129.48H545.68L514,155.41h23.1C540.36,150.8,556.21,134.2,559.55,129.48Z"/><path class="cls-6" d="M672.29,173.39a11.57,11.57,0,0,1-8.18,3.38,11.54,11.54,0,0,1-11.53-11.55v-9.81h23.09v9.81A11.52,11.52,0,0,1,672.29,173.39Z"/><path class="cls-9" d="M630.12,129.48H644l31.68,25.93H652.58C649.31,150.8,633.46,134.2,630.12,129.48Z"/><g class="cls-10"><polygon class="cls-11" points="552.71 379.38 553.71 381.39 555.93 381.71 554.32 383.28 554.7 385.49 552.71 384.45 550.73 385.49 551.11 383.28 549.5 381.71 551.72 381.39 552.71 379.38"/><polygon class="cls-11" points="560.81 379.38 561.8 381.39 564.02 381.71 562.41 383.28 562.79 385.49 560.81 384.45 558.82 385.49 559.2 383.28 557.59 381.71 559.81 381.39 560.81 379.38"/><polygon class="cls-11" points="568.9 379.38 569.89 381.39 572.11 381.71 570.5 383.28 570.88 385.49 568.9 384.45 566.91 385.49 567.29 383.28 565.68 381.71 567.9 381.39 568.9 379.38"/><polygon class="cls-11" points="576.99 379.38 577.98 381.39 580.2 381.71 578.6 383.28 578.97 385.49 576.99 384.45 575 385.49 575.38 383.28 573.78 381.71 576 381.39 576.99 379.38"/><polygon class="cls-11" points="585.08 379.38 586.07 381.39 588.29 381.71 586.69 383.28 587.07 385.49 585.08 384.45 583.1 385.49 583.48 383.28 581.87 381.71 584.09 381.39 585.08 379.38"/><rect class="cls-7" x="548.21" y="328.4" width="41.38" height="45.13" rx="2.08"/><polygon class="cls-11" points="606.32 379.38 607.32 381.39 609.53 381.71 607.93 383.28 608.31 385.49 606.32 384.45 604.34 385.49 604.72 383.28 603.11 381.71 605.33 381.39 606.32 379.38"/><polygon class="cls-11" points="614.41 379.38 615.41 381.39 617.63 381.71 616.02 383.28 616.4 385.49 614.41 384.45 612.43 385.49 612.81 383.28 611.2 381.71 613.42 381.39 614.41 379.38"/><polygon class="cls-11" points="622.51 379.38 623.5 381.39 625.72 381.71 624.11 383.28 624.49 385.49 622.51 384.45 620.52 385.49 620.9 383.28 619.29 381.71 621.51 381.39 622.51 379.38"/><polygon class="cls-11" points="630.6 379.38 631.59 381.39 633.81 381.71 632.2 383.28 632.58 385.49 630.6 384.45 628.61 385.49 628.99 383.28 627.38 381.71 629.61 381.39 630.6 379.38"/><polygon class="cls-11" points="638.69 379.38 639.68 381.39 641.9 381.71 640.29 383.28 640.67 385.49 638.69 384.45 636.7 385.49 637.08 383.28 635.48 381.71 637.7 381.39 638.69 379.38"/><rect class="cls-7" x="601.82" y="328.4" width="41.38" height="45.13" rx="2.08"/><polygon class="cls-11" points="552.71 307.93 553.71 309.94 555.93 310.26 554.32 311.83 554.7 314.04 552.71 313 550.73 314.04 551.11 311.83 549.5 310.26 551.72 309.94 552.71 307.93"/><polygon class="cls-11" points="560.81 307.93 561.8 309.94 564.02 310.26 562.41 311.83 562.79 314.04 560.81 313 558.82 314.04 559.2 311.83 557.59 310.26 559.81 309.94 560.81 307.93"/><polygon class="cls-11" points="568.9 307.93 569.89 309.94 572.11 310.26 570.5 311.83 570.88 314.04 568.9 313 566.91 314.04 567.29 311.83 565.68 310.26 567.9 309.94 568.9 307.93"/><polygon class="cls-11" points="576.99 307.93 577.98 309.94 580.2 310.26 578.6 311.83 578.97 314.04 576.99 313 575 314.04 575.38 311.83 573.78 310.26 576 309.94 576.99 307.93"/><polygon class="cls-11" points="585.08 307.93 586.07 309.94 588.29 310.26 586.69 311.83 587.07 314.04 585.08 313 583.1 314.04 583.48 311.83 581.87 310.26 584.09 309.94 585.08 307.93"/><rect class="cls-7" x="548.21" y="256.95" width="41.38" height="45.13" rx="2.08"/><polygon class="cls-11" points="606.32 307.93 607.32 309.94 609.53 310.26 607.93 311.83 608.31 314.04 606.32 313 604.34 314.04 604.72 311.83 603.11 310.26 605.33 309.94 606.32 307.93"/><polygon class="cls-11" points="614.41 307.93 615.41 309.94 617.63 310.26 616.02 311.83 616.4 314.04 614.41 313 612.43 314.04 612.81 311.83 611.2 310.26 613.42 309.94 614.41 307.93"/><polygon class="cls-11" points="622.51 307.93 623.5 309.94 625.72 310.26 624.11 311.83 624.49 314.04 622.51 313 620.52 314.04 620.9 311.83 619.29 310.26 621.51 309.94 622.51 307.93"/><polygon class="cls-11" points="630.6 307.93 631.59 309.94 633.81 310.26 632.2 311.83 632.58 314.04 630.6 313 628.61 314.04 628.99 311.83 627.38 310.26 629.61 309.94 630.6 307.93"/><polygon class="cls-11" points="638.69 307.93 639.68 309.94 641.9 310.26 640.29 311.83 640.67 314.04 638.69 313 636.7 314.04 637.08 311.83 635.48 310.26 637.7 309.94 638.69 307.93"/><rect class="cls-7" x="601.82" y="256.95" width="41.38" height="45.13" rx="2.08"/><polygon class="cls-11" points="552.71 236.48 553.71 238.49 555.93 238.81 554.32 240.38 554.7 242.59 552.71 241.54 550.73 242.59 551.11 240.38 549.5 238.81 551.72 238.49 552.71 236.48"/><polygon class="cls-11" points="560.81 236.48 561.8 238.49 564.02 238.81 562.41 240.38 562.79 242.59 560.81 241.54 558.82 242.59 559.2 240.38 557.59 238.81 559.81 238.49 560.81 236.48"/><polygon class="cls-11" points="568.9 236.48 569.89 238.49 572.11 238.81 570.5 240.38 570.88 242.59 568.9 241.54 566.91 242.59 567.29 240.38 565.68 238.81 567.9 238.49 568.9 236.48"/><polygon class="cls-11" points="576.99 236.48 577.98 238.49 580.2 238.81 578.6 240.38 578.97 242.59 576.99 241.54 575 242.59 575.38 240.38 573.78 238.81 576 238.49 576.99 236.48"/><polygon class="cls-11" points="585.08 236.48 586.07 238.49 588.29 238.81 586.69 240.38 587.07 242.59 585.08 241.54 583.1 242.59 583.48 240.38 581.87 238.81 584.09 238.49 585.08 236.48"/><rect class="cls-7" x="548.21" y="185.5" width="41.38" height="45.13" rx="2.08"/><polygon class="cls-11" points="606.32 236.48 607.32 238.49 609.53 238.81 607.93 240.38 608.31 242.59 606.32 241.54 604.34 242.59 604.72 240.38 603.11 238.81 605.33 238.49 606.32 236.48"/><polygon class="cls-11" points="614.41 236.48 615.41 238.49 617.63 238.81 616.02 240.38 616.4 242.59 614.41 241.54 612.43 242.59 612.81 240.38 611.2 238.81 613.42 238.49 614.41 236.48"/><polygon class="cls-11" points="622.51 236.48 623.5 238.49 625.72 238.81 624.11 240.38 624.49 242.59 622.51 241.54 620.52 242.59 620.9 240.38 619.29 238.81 621.51 238.49 622.51 236.48"/><polygon class="cls-11" points="630.6 236.48 631.59 238.49 633.81 238.81 632.2 240.38 632.58 242.59 630.6 241.54 628.61 242.59 628.99 240.38 627.38 238.81 629.61 238.49 630.6 236.48"/><polygon class="cls-11" points="638.69 236.48 639.68 238.49 641.9 238.81 640.29 240.38 640.67 242.59 638.69 241.54 636.7 242.59 637.08 240.38 635.48 238.81 637.7 238.49 638.69 236.48"/><rect class="cls-7" x="601.82" y="185.5" width="41.38" height="45.13" rx="2.08"/><polygon class="cls-6" points="611.21 264.76 600.59 274.39 605.9 280.94 611.21 278.75 611.21 264.76"/><polygon class="cls-6" points="633.8 264.76 644.42 274.39 639.11 280.94 633.8 278.75 633.8 264.76"/><path class="cls-4" d="M626.32,263.76a4.55,4.55,0,0,1-7.63,0l-7.48,1v37.32H633.8V264.76Z"/><path class="cls-6" d="M627.76,264l-1.44-.2a4.55,4.55,0,0,1-7.63,0l-1.44.2a5.9,5.9,0,0,0,10.51,0Z"/><rect class="cls-4" x="571.84" y="301.04" width="19.03" height="1.04"/><polygon class="cls-4" points="571.29 294.13 571.84 301.04 582.84 301.04 575.59 292.53 571.29 294.13"/><path class="cls-6" d="M590.27,297.94a15.41,15.41,0,0,0-1.51-1,17.33,17.33,0,0,1-8.13-10.84v0l1.62-22.05c0-.34-2.71-.61-6-.61s-6,.27-6,.61L571.82,286a14.09,14.09,0,0,0-1.68,3.77c-.3,1.71.6,3.21,1.15,4.41l3.17.86s2.49.24,4.24,3.6c1.08,2.09,1.85,2.45,2.85,2.45h9.32A2.48,2.48,0,0,0,590.27,297.94Z"/><rect class="cls-4" x="546.93" y="301.04" width="19.03" height="1.04"/><polygon class="cls-4" points="566.5 294.13 565.95 301.04 554.95 301.04 562.21 292.53 566.5 294.13"/><path class="cls-6" d="M547.53,297.94a15.06,15.06,0,0,1,1.5-1,17.26,17.26,0,0,0,8.13-10.84v0l-1.62-22.05c0-.34,2.7-.61,6-.61s6,.27,6,.61L566,286a14.41,14.41,0,0,1,1.68,3.77c.3,1.71-.6,3.21-1.16,4.41l-3.17.86s-2.48.24-4.23,3.6c-1.09,2.09-1.86,2.45-2.86,2.45h-9.31A2.48,2.48,0,0,1,547.53,297.94Z"/><path class="cls-4" d="M619.61,188.23h6.62a0,0,0,0,1,0,0v4.38a.81.81,0,0,1-.81.81h-5a.81.81,0,0,1-.81-.81v-4.38A0,0,0,0,1,619.61,188.23Z" transform="translate(1245.83 381.65) rotate(180)"/><path class="cls-6" d="M622.41,192.85h1a8.87,8.87,0,0,1,8,5h0a15,15,0,0,1,1.49,6.52v23.89a2.34,2.34,0,0,1-2.34,2.34H615.25a2.34,2.34,0,0,1-2.34-2.34V204.4a15,15,0,0,1,1.49-6.52h0A8.87,8.87,0,0,1,622.41,192.85Z"/><rect class="cls-4" x="618.87" y="192.12" width="8.1" height="1.47" transform="translate(1245.83 385.7) rotate(180)"/><rect class="cls-4" x="621.7" y="186.13" width="2.43" height="2.09" transform="translate(1245.83 374.35) rotate(180)"/><path class="cls-4" d="M625.28,183.72a19.55,19.55,0,0,1,10.43,3l-.76,1.32a19.55,19.55,0,0,0-8.47-1.93h-7.61v-2.41Z"/><rect class="cls-4" x="612.91" y="208.3" width="20.01" height="15.04" transform="translate(1245.83 431.63) rotate(180)"/><polygon class="cls-6" points="618.13 214.28 621.38 214.28 621.38 211.03 624.45 211.03 624.45 214.28 627.71 214.28 627.71 217.35 624.45 217.35 624.45 220.61 621.38 220.61 621.38 217.35 618.13 217.35 618.13 214.28"/><path class="cls-6" d="M583.41,339.91l-.38-1.52a5.73,5.73,0,0,0-5.56-4.34h-2.32a3.28,3.28,0,0,1-3.28-3.28V329h-6.25v3.32a3.29,3.29,0,0,1-1.83,2.94l-.75.37a9.77,9.77,0,0,0-5.15,6.33,97.75,97.75,0,0,0-3.06,24.25v4.07a3.28,3.28,0,0,0,3.28,3.28h23.94a3.28,3.28,0,0,0,3.28-3.28V355.57A65.12,65.12,0,0,0,583.41,339.91Zm-1.54,15.63a.67.67,0,0,1-.61-.41L574,337.73a.66.66,0,0,1,.67-.91h2.76a2.93,2.93,0,0,1,2.85,2.23l.38,1.53a61.82,61.82,0,0,1,1.84,14.27A.68.68,0,0,1,581.87,355.54Z"/><polygon class="cls-4" points="562.35 354.22 566.68 354.22 566.68 349.89 570.76 349.89 570.76 354.22 575.09 354.22 575.09 358.3 570.76 358.3 570.76 362.63 566.68 362.63 566.68 358.3 562.35 358.3 562.35 354.22"/><path class="cls-4" d="M565.07,326.6h7.31a0,0,0,0,1,0,0v3.47a.89.89,0,0,1-.89.89H566a.89.89,0,0,1-.89-.89V326.6A0,0,0,0,1,565.07,326.6Z" transform="translate(1137.44 657.55) rotate(180)"/><rect class="cls-4" x="564.79" y="330.25" width="7.86" height="1.43" transform="translate(1137.44 661.92) rotate(180)"/><polygon class="cls-4" points="631.88 329.22 613.13 329.22 609.26 335.96 609.26 373.47 635.75 373.47 635.75 335.96 631.88 329.22"/><rect class="cls-6" x="613.13" y="326.6" width="18.74" height="2.63"/><rect class="cls-6" x="609.26" y="335.96" width="26.48" height="37.51"/><rect class="cls-4" x="609.26" y="356.82" width="26.48" height="18.11"/><path class="cls-4" d="M568.17,230.63H551.69V198.74a8.24,8.24,0,0,1,8.24-8.24h0a8.24,8.24,0,0,1,8.24,8.24Z"/><path class="cls-4" d="M556.39,186.93v4.74h7.08v-4.74h0c0-.43-1.58-.77-3.54-.77s-3.54.34-3.54.77Z"/><path class="cls-6" d="M556.39,184.37v5.18h7.08v-5.18a.65.65,0,0,0-.65-.65H557A.65.65,0,0,0,556.39,184.37Z"/><rect class="cls-4" x="556.39" y="186.48" width="7.08" height="0.88"/><path class="cls-4" d="M561.27,186.92a1.34,1.34,0,1,1-2.68,0Z"/><rect class="cls-6" x="551.69" y="203.93" width="16.48" height="19.07"/><path class="cls-6" d="M581.74,227.42v-4.74h-7.08v4.74h0c0,.43,1.58.77,3.54.77s3.54-.34,3.54-.77Z"/><path class="cls-4" d="M581.74,230v-4.54h-7.08V230a.65.65,0,0,0,.65.65h5.78A.65.65,0,0,0,581.74,230Z"/><rect class="cls-6" x="574.66" y="227.44" width="7.08" height="0.88" transform="translate(1156.4 455.76) rotate(180)"/><path class="cls-6" d="M576.86,227.88a1.34,1.34,0,0,1,2.68,0Z"/><path class="cls-6" d="M578.2,192.73h-7.9l.88,19.53a30.38,30.38,0,0,0,2.54,9.13l.94,2.07,3.54.48,3.54-.48.94-2.07a30.38,30.38,0,0,0,2.54-9.13l.88-19.53Z"/><rect class="cls-4" x="570.3" y="190.54" width="15.8" height="2.19"/><path class="cls-6" d="M613.41,330.83h7.31a0,0,0,0,1,0,0v1.4a.6.6,0,0,1-.6.6H614a.6.6,0,0,1-.6-.6v-1.4A0,0,0,0,1,613.41,330.83Z" transform="translate(1234.13 663.66) rotate(180)"/><rect class="cls-6" x="613.13" y="332.75" width="7.86" height="0.96" transform="translate(1234.13 666.46) rotate(180)"/></g><rect class="cls-3" x="515.58" y="361.86" width="158.51" height="11.84"/><rect class="cls-4" x="659.9" y="343.77" width="54.55" height="50.88"/><rect class="cls-7" x="662.62" y="385.04" width="5.34" height="5.34"/><rect class="cls-7" x="670.8" y="385.04" width="5.34" height="5.34"/><rect class="cls-12" x="465.75" y="335.35" width="63.57" height="59.29"/><polygon class="cls-4" points="509.86 335.35 485.21 335.35 485.21 355.51 487.62 358.23 490.1 355.42 492.58 358.23 495.06 355.42 497.54 358.23 500.02 355.42 502.5 358.23 504.98 355.42 507.45 358.23 509.86 355.51 509.86 335.35"/><rect class="cls-7" x="468.92" y="383.46" width="6.22" height="6.22"/><rect class="cls-7" x="478.45" y="383.46" width="6.22" height="6.22"/><rect class="cls-12" x="666.42" y="311.31" width="34.8" height="32.45"/><polygon class="cls-4" points="690.56 311.31 677.07 311.31 677.07 322.34 678.39 323.83 679.74 322.3 681.1 323.83 682.46 322.3 683.82 323.83 685.17 322.3 686.53 323.83 687.89 322.3 689.24 323.83 690.56 322.35 690.56 311.31"/><rect class="cls-7" x="690.59" y="337.64" width="3.4" height="3.4"/><rect class="cls-7" x="695.81" y="337.64" width="3.4" height="3.4"/></g></svg>